<svg xmlns="http://www.w3.org/2000/svg" width="320" height="505" fill="none" viewBox="0 0 320 505"><g fill="#FDEEE3" clip-path="url(#a)" opacity="0.3"><path d="M.296 0h426.37v.287H.297zm0 15.287h426.37v.287H.297zm0 15.287h426.37v.287H.297zm0 15.287h426.37v.287H.297zm0 15.287h426.37v.288H.297zm0 15.288h426.37v.287H.297zm0 15.287h426.37v.287H.297zm0 15.287h426.37v.287H.297zm0 15.287h426.37v.287H.297zm0 15.287h426.37v.287H.297zm0 15.287h426.37v.287H.297zm0 15.287h426.37v.287H.297zm0 15.287h426.37v.287H.297zm0 15.287h426.37v.287H.297zm0 15.288h426.37v.287H.297zm0 15.287h426.37v.287H.297zm0 15.287h426.37v.287H.297zm0 15.287h426.37v.287H.297zm0 15.287h426.37v.287H.297zm0 15.287h426.37v.287H.297zm0 15.287h426.37v.287H.297zm0 15.287h426.37v.287H.297zm0 122.297h426.37v.287H.297zm0-107.01h426.37v.287H.297zm0 122.297h426.37v.287H.297zm0-107.01h426.37v.287H.297zm0 122.297h426.37v.287H.297zm0-107.009h426.37v.287H.297zm0 122.296h426.37v.287H.297zm0-107.009h426.37v.287H.297zm0 15.287h426.37v.287H.297zm0 15.287h426.37v.287H.297zm0 15.287h426.37v.287H.297z"/></g><path fill="#FDEEE3" d="M0 0h.417v505H0zm15 0h.5v505H15zm15 0h.5v505H30zm15 0h.5v505H45zm16 0h.5v505H61zm15 0h.5v505H76zm15 0h.5v505H91zm15 0h.5v505h-.5zm16 0h.5v505h-.5zm15 0h.5v505h-.5zm15 0h.5v505h-.5zm15 0h.5v505h-.5zm16 0h.5v505h-.5zm15 0h.5v505h-.5zm15 0h.5v505h-.5zm15 0h.5v505h-.5zm15 0h.5v505h-.5zm15 0h.5v505h-.5zm15 0h.5v505h-.5zm16 0h.5v505h-.5zm15 0h.5v505h-.5z" opacity="0.2"/><defs><clipPath id="a"><path fill="#fff" d="M0 0h320v505H0z"/></clipPath></defs></svg>