<svg width="1024" height="530" viewBox="0 0 1024 530" fill="none" xmlns="http://www.w3.org/2000/svg">
<g opacity="0.3" clip-path="url(#clip0_6078_547)">
<rect x="0.709961" width="1023.29" height="0.666853" fill="#FDEEE3"/>
<rect x="0.709961" y="35.6669" width="1023.29" height="0.666853" fill="#FDEEE3"/>
<rect x="0.709961" y="71.3337" width="1023.29" height="0.666853" fill="#FDEEE3"/>
<rect x="0.709961" y="107.001" width="1023.29" height="0.666853" fill="#FDEEE3"/>
<rect x="0.709961" y="142.667" width="1023.29" height="0.666853" fill="#FDEEE3"/>
<rect x="0.709961" y="178.334" width="1023.29" height="0.666853" fill="#FDEEE3"/>
<rect x="0.709961" y="214.001" width="1023.29" height="0.666853" fill="#FDEEE3"/>
<rect x="0.709961" y="249.668" width="1023.29" height="0.666853" fill="#FDEEE3"/>
<rect x="0.709961" y="285.335" width="1023.29" height="0.666853" fill="#FDEEE3"/>
<rect x="0.709961" y="321.002" width="1023.29" height="0.666853" fill="#FDEEE3"/>
<rect x="0.709961" y="356.668" width="1023.29" height="0.666853" fill="#FDEEE3"/>
<rect x="0.709961" y="392.335" width="1023.29" height="0.666853" fill="#FDEEE3"/>
<rect x="0.709961" y="428.002" width="1023.29" height="0.666853" fill="#FDEEE3"/>
<rect x="0.709961" y="463.669" width="1023.29" height="0.666853" fill="#FDEEE3"/>
<rect x="0.709961" y="499.336" width="1023.29" height="0.666853" fill="#FDEEE3"/>
</g>
<g opacity="0.2">
<rect width="0.978804" height="530" fill="#FDEEE3"/>
<rect x="36.46" width="0.978804" height="530" fill="#FDEEE3"/>
<rect x="72.9209" width="0.978804" height="530" fill="#FDEEE3"/>
<rect x="109.381" width="0.978804" height="530" fill="#FDEEE3"/>
<rect x="145.842" width="0.978804" height="530" fill="#FDEEE3"/>
<rect x="182.302" width="0.978804" height="530" fill="#FDEEE3"/>
<rect x="218.763" width="0.978804" height="530" fill="#FDEEE3"/>
<rect x="255.223" width="0.978804" height="530" fill="#FDEEE3"/>
<rect x="291.684" width="0.978804" height="530" fill="#FDEEE3"/>
<rect x="328.144" width="0.978804" height="530" fill="#FDEEE3"/>
<rect x="364.604" width="0.978804" height="530" fill="#FDEEE3"/>
<rect x="401.064" width="0.978804" height="530" fill="#FDEEE3"/>
<rect x="437.525" width="0.978804" height="530" fill="#FDEEE3"/>
<rect x="473.985" width="0.978804" height="530" fill="#FDEEE3"/>
<rect x="510.446" width="0.978804" height="530" fill="#FDEEE3"/>
<rect x="546.906" width="0.978804" height="530" fill="#FDEEE3"/>
<rect x="583.367" width="0.978804" height="530" fill="#FDEEE3"/>
<rect x="619.827" width="0.978804" height="530" fill="#FDEEE3"/>
<rect x="656.288" width="0.978804" height="530" fill="#FDEEE3"/>
<rect x="692.748" width="0.978804" height="530" fill="#FDEEE3"/>
<rect x="729.209" width="0.978804" height="530" fill="#FDEEE3"/>
<rect x="765.669" width="0.978804" height="530" fill="#FDEEE3"/>
<rect x="802.13" width="0.978804" height="530" fill="#FDEEE3"/>
<rect x="838.59" width="0.978804" height="530" fill="#FDEEE3"/>
<rect x="875.051" width="0.978804" height="530" fill="#FDEEE3"/>
<rect x="911.511" width="0.978804" height="530" fill="#FDEEE3"/>
<rect x="947.972" width="0.978804" height="530" fill="#FDEEE3"/>
<rect x="984.432" width="0.978804" height="530" fill="#FDEEE3"/>
</g>
<defs>
<clipPath id="clip0_6078_547">
<rect width="1023.29" height="530" fill="white" transform="translate(0.709961)"/>
</clipPath>
</defs>
</svg>
