<svg width="320" height="505" viewBox="0 0 320 505" fill="none" xmlns="http://www.w3.org/2000/svg">
<g opacity="0.3" clip-path="url(#clip0_6079_669)">
<rect x="0.295898" width="426.371" height="0.287106" fill="#FDEEE3"/>
<rect x="0.295898" y="15.2871" width="426.371" height="0.287106" fill="#FDEEE3"/>
<rect x="0.295898" y="30.5742" width="426.371" height="0.287106" fill="#FDEEE3"/>
<rect x="0.295898" y="45.8613" width="426.371" height="0.287106" fill="#FDEEE3"/>
<rect x="0.295898" y="61.1484" width="426.371" height="0.287106" fill="#FDEEE3"/>
<rect x="0.295898" y="76.4355" width="426.371" height="0.287106" fill="#FDEEE3"/>
<rect x="0.295898" y="91.7227" width="426.371" height="0.287106" fill="#FDEEE3"/>
<rect x="0.295898" y="107.01" width="426.371" height="0.287106" fill="#FDEEE3"/>
<rect x="0.295898" y="122.297" width="426.371" height="0.287106" fill="#FDEEE3"/>
<rect x="0.295898" y="137.584" width="426.371" height="0.287106" fill="#FDEEE3"/>
<rect x="0.295898" y="152.871" width="426.371" height="0.287106" fill="#FDEEE3"/>
<rect x="0.295898" y="168.158" width="426.371" height="0.287106" fill="#FDEEE3"/>
<rect x="0.295898" y="183.445" width="426.371" height="0.287106" fill="#FDEEE3"/>
<rect x="0.295898" y="198.732" width="426.371" height="0.287106" fill="#FDEEE3"/>
<rect x="0.295898" y="214.02" width="426.371" height="0.287106" fill="#FDEEE3"/>
<rect x="0.295898" y="229.307" width="426.371" height="0.287106" fill="#FDEEE3"/>
<rect x="0.295898" y="244.594" width="426.371" height="0.287106" fill="#FDEEE3"/>
<rect x="0.295898" y="259.881" width="426.371" height="0.287106" fill="#FDEEE3"/>
<rect x="0.295898" y="275.168" width="426.371" height="0.287106" fill="#FDEEE3"/>
<rect x="0.295898" y="290.455" width="426.371" height="0.287106" fill="#FDEEE3"/>
<rect x="0.295898" y="305.742" width="426.371" height="0.287106" fill="#FDEEE3"/>
<rect x="0.295898" y="321.029" width="426.371" height="0.287106" fill="#FDEEE3"/>
<rect x="0.295898" y="443.326" width="426.371" height="0.287106" fill="#FDEEE3"/>
<rect x="0.295898" y="336.316" width="426.371" height="0.287106" fill="#FDEEE3"/>
<rect x="0.295898" y="458.613" width="426.371" height="0.287106" fill="#FDEEE3"/>
<rect x="0.295898" y="351.603" width="426.371" height="0.287106" fill="#FDEEE3"/>
<rect x="0.295898" y="473.9" width="426.371" height="0.287106" fill="#FDEEE3"/>
<rect x="0.295898" y="366.891" width="426.371" height="0.287106" fill="#FDEEE3"/>
<rect x="0.295898" y="489.187" width="426.371" height="0.287106" fill="#FDEEE3"/>
<rect x="0.295898" y="382.178" width="426.371" height="0.287106" fill="#FDEEE3"/>
<rect x="0.295898" y="397.465" width="426.371" height="0.287106" fill="#FDEEE3"/>
<rect x="0.295898" y="412.752" width="426.371" height="0.287106" fill="#FDEEE3"/>
<rect x="0.295898" y="428.039" width="426.371" height="0.287106" fill="#FDEEE3"/>
</g>
<g opacity="0.2">
<rect width="0.416667" height="505" fill="#FDEEE3"/>
<rect x="15" width="0.5" height="505" fill="#FDEEE3"/>
<rect x="30" width="0.5" height="505" fill="#FDEEE3"/>
<rect x="45" width="0.5" height="505" fill="#FDEEE3"/>
<rect x="61" width="0.5" height="505" fill="#FDEEE3"/>
<rect x="76" width="0.5" height="505" fill="#FDEEE3"/>
<rect x="91" width="0.5" height="505" fill="#FDEEE3"/>
<rect x="106" width="0.5" height="505" fill="#FDEEE3"/>
<rect x="122" width="0.5" height="505" fill="#FDEEE3"/>
<rect x="137" width="0.5" height="505" fill="#FDEEE3"/>
<rect x="152" width="0.5" height="505" fill="#FDEEE3"/>
<rect x="167" width="0.5" height="505" fill="#FDEEE3"/>
<rect x="183" width="0.5" height="505" fill="#FDEEE3"/>
<rect x="198" width="0.5" height="505" fill="#FDEEE3"/>
<rect x="213" width="0.5" height="505" fill="#FDEEE3"/>
<rect x="228" width="0.5" height="505" fill="#FDEEE3"/>
<rect x="243" width="0.5" height="505" fill="#FDEEE3"/>
<rect x="258" width="0.5" height="505" fill="#FDEEE3"/>
<rect x="273" width="0.5" height="505" fill="#FDEEE3"/>
<rect x="289" width="0.5" height="505" fill="#FDEEE3"/>
<rect x="304" width="0.5" height="505" fill="#FDEEE3"/>
</g>
<defs>
<clipPath id="clip0_6079_669">
<rect width="320" height="505" fill="white"/>
</clipPath>
</defs>
</svg>
