<svg width="1440" height="765" viewBox="0 0 1440 765" fill="none" xmlns="http://www.w3.org/2000/svg">
<g opacity="0.3" clip-path="url(#clip0_6078_61)">
<rect x="0.999512" width="1442" height="0.962264" fill="#FDEEE3"/>
<rect x="0.999512" y="50.9623" width="1442" height="0.962264" fill="#FDEEE3"/>
<rect x="0.999512" y="101.925" width="1442" height="0.962264" fill="#FDEEE3"/>
<rect x="0.999512" y="152.887" width="1442" height="0.962264" fill="#FDEEE3"/>
<rect x="0.999512" y="203.849" width="1442" height="0.962264" fill="#FDEEE3"/>
<rect x="0.999512" y="254.811" width="1442" height="0.962264" fill="#FDEEE3"/>
<rect x="0.999512" y="305.774" width="1442" height="0.962264" fill="#FDEEE3"/>
<rect x="0.999512" y="356.736" width="1442" height="0.962264" fill="#FDEEE3"/>
<rect x="0.999512" y="407.698" width="1442" height="0.962264" fill="#FDEEE3"/>
<rect x="0.999512" y="458.661" width="1442" height="0.962264" fill="#FDEEE3"/>
<rect x="0.999512" y="509.623" width="1442" height="0.962264" fill="#FDEEE3"/>
<rect x="0.999512" y="560.585" width="1442" height="0.962264" fill="#FDEEE3"/>
<rect x="0.999512" y="611.547" width="1442" height="0.962264" fill="#FDEEE3"/>
<rect x="0.999512" y="662.51" width="1442" height="0.962264" fill="#FDEEE3"/>
<rect x="0.999512" y="713.472" width="1442" height="0.962264" fill="#FDEEE3"/>
</g>
<g opacity="0.2">
<rect width="1.38218" height="765" fill="#FDEEE3"/>
<rect x="51.3823" width="1.38218" height="765" fill="#FDEEE3"/>
<rect x="102.764" width="1.38218" height="765" fill="#FDEEE3"/>
<rect x="154.146" width="1.38218" height="765" fill="#FDEEE3"/>
<rect x="205.529" width="1.38218" height="765" fill="#FDEEE3"/>
<rect x="256.911" width="1.38218" height="765" fill="#FDEEE3"/>
<rect x="308.293" width="1.38218" height="765" fill="#FDEEE3"/>
<rect x="359.675" width="1.38218" height="765" fill="#FDEEE3"/>
<rect x="411.058" width="1.38218" height="765" fill="#FDEEE3"/>
<rect x="462.439" width="1.38218" height="765" fill="#FDEEE3"/>
<rect x="513.822" width="1.38218" height="765" fill="#FDEEE3"/>
<rect x="565.204" width="1.38218" height="765" fill="#FDEEE3"/>
<rect x="616.586" width="1.38218" height="765" fill="#FDEEE3"/>
<rect x="667.968" width="1.38218" height="765" fill="#FDEEE3"/>
<rect x="719.351" width="1.38218" height="765" fill="#FDEEE3"/>
<rect x="770.733" width="1.38218" height="765" fill="#FDEEE3"/>
<rect x="822.115" width="1.38218" height="765" fill="#FDEEE3"/>
<rect x="873.497" width="1.38218" height="765" fill="#FDEEE3"/>
<rect x="924.879" width="1.38218" height="765" fill="#FDEEE3"/>
<rect x="976.262" width="1.38218" height="765" fill="#FDEEE3"/>
<rect x="1027.64" width="1.38218" height="765" fill="#FDEEE3"/>
<rect x="1079.03" width="1.38218" height="765" fill="#FDEEE3"/>
<rect x="1130.41" width="1.38218" height="765" fill="#FDEEE3"/>
<rect x="1181.79" width="1.38218" height="765" fill="#FDEEE3"/>
<rect x="1233.17" width="1.38218" height="765" fill="#FDEEE3"/>
<rect x="1284.55" width="1.38218" height="765" fill="#FDEEE3"/>
<rect x="1335.94" width="1.38218" height="765" fill="#FDEEE3"/>
<rect x="1387.32" width="1.38218" height="765" fill="#FDEEE3"/>
</g>
<defs>
<clipPath id="clip0_6078_61">
<rect width="1439" height="765" fill="white" transform="translate(0.997559)"/>
</clipPath>
</defs>
</svg>
