<svg width="768" height="780" viewBox="0 0 768 780" fill="none" xmlns="http://www.w3.org/2000/svg">
<g opacity="0.3" clip-path="url(#clip0_6079_608)">
<rect x="0.709961" width="1023.29" height="0.680829" fill="#FDEEE3"/>
<rect x="0.709961" y="35.6808" width="1023.29" height="0.680829" fill="#FDEEE3"/>
<rect x="0.709961" y="71.3616" width="1023.29" height="0.680829" fill="#FDEEE3"/>
<rect x="0.709961" y="107.042" width="1023.29" height="0.680829" fill="#FDEEE3"/>
<rect x="0.709961" y="142.723" width="1023.29" height="0.680829" fill="#FDEEE3"/>
<rect x="0.709961" y="178.404" width="1023.29" height="0.680829" fill="#FDEEE3"/>
<rect x="0.709961" y="214.085" width="1023.29" height="0.680829" fill="#FDEEE3"/>
<rect x="0.709961" y="249.766" width="1023.29" height="0.680829" fill="#FDEEE3"/>
<rect x="0.709961" y="285.446" width="1023.29" height="0.680829" fill="#FDEEE3"/>
<rect x="0.709961" y="321.127" width="1023.29" height="0.680829" fill="#FDEEE3"/>
<rect x="0.709961" y="356.808" width="1023.29" height="0.680829" fill="#FDEEE3"/>
<rect x="0.709961" y="392.489" width="1023.29" height="0.680829" fill="#FDEEE3"/>
<rect x="0.709961" y="428.169" width="1023.29" height="0.680829" fill="#FDEEE3"/>
<rect x="0.709961" y="463.85" width="1023.29" height="0.680829" fill="#FDEEE3"/>
<rect x="0.709961" y="499.531" width="1023.29" height="0.680829" fill="#FDEEE3"/>
<rect x="0.709961" y="535.212" width="1023.29" height="0.680829" fill="#FDEEE3"/>
<rect x="0.709961" y="570.893" width="1023.29" height="0.680829" fill="#FDEEE3"/>
<rect x="0.709961" y="606.573" width="1023.29" height="0.680829" fill="#FDEEE3"/>
<rect x="0.709961" y="642.254" width="1023.29" height="0.680829" fill="#FDEEE3"/>
<rect x="0.709961" y="677.935" width="1023.29" height="0.680829" fill="#FDEEE3"/>
<rect x="0.709961" y="713.616" width="1023.29" height="0.680829" fill="#FDEEE3"/>
<rect x="0.709961" y="749.297" width="1023.29" height="0.680829" fill="#FDEEE3"/>
</g>
<g opacity="0.2">
<rect width="1" height="780" fill="#FDEEE3"/>
<rect x="36" width="1" height="780" fill="#FDEEE3"/>
<rect x="73" width="1" height="780" fill="#FDEEE3"/>
<rect x="109" width="1" height="780" fill="#FDEEE3"/>
<rect x="146" width="1" height="780" fill="#FDEEE3"/>
<rect x="182" width="1" height="780" fill="#FDEEE3"/>
<rect x="219" width="1" height="780" fill="#FDEEE3"/>
<rect x="255" width="1" height="780" fill="#FDEEE3"/>
<rect x="292" width="1" height="780" fill="#FDEEE3"/>
<rect x="328" width="1" height="780" fill="#FDEEE3"/>
<rect x="365" width="1" height="780" fill="#FDEEE3"/>
<rect x="401" width="1" height="780" fill="#FDEEE3"/>
<rect x="438" width="1" height="780" fill="#FDEEE3"/>
<rect x="474" width="1" height="780" fill="#FDEEE3"/>
<rect x="510" width="1" height="780" fill="#FDEEE3"/>
<rect x="547" width="1" height="780" fill="#FDEEE3"/>
<rect x="583" width="1" height="780" fill="#FDEEE3"/>
<rect x="620" width="1" height="780" fill="#FDEEE3"/>
<rect x="656" width="1" height="780" fill="#FDEEE3"/>
<rect x="693" width="1" height="780" fill="#FDEEE3"/>
<rect x="729" width="1" height="780" fill="#FDEEE3"/>
</g>
<defs>
<clipPath id="clip0_6079_608">
<rect width="768" height="780" fill="white"/>
</clipPath>
</defs>
</svg>
